<svg xmlns="http://www.w3.org/2000/svg" viewBox="0 0 960 420" role="img" aria-labelledby="title desc">
  <title id="title">Obsidian Jekyll Starter Cover</title>
  <desc id="desc">A simple editorial cover showing Markdown files flowing into a website.</desc>
  <rect width="960" height="420" fill="#fbfaf7"/>
  <rect x="62" y="70" width="260" height="280" rx="8" fill="#ffffff" stroke="#ded8cc"/>
  <rect x="112" y="112" width="160" height="16" rx="4" fill="#2f7a5f"/>
  <rect x="112" y="152" width="118" height="10" rx="3" fill="#a8b4aa"/>
  <rect x="112" y="176" width="156" height="10" rx="3" fill="#a8b4aa"/>
  <rect x="112" y="200" width="132" height="10" rx="3" fill="#a8b4aa"/>
  <path d="M380 210h180" fill="none" stroke="#2f7a5f" stroke-width="8" stroke-linecap="round"/>
  <path d="M535 172l48 38-48 38" fill="none" stroke="#2f7a5f" stroke-width="8" stroke-linecap="round" stroke-linejoin="round"/>
  <rect x="630" y="86" width="270" height="248" rx="12" fill="#20231f"/>
  <rect x="660" y="124" width="210" height="32" rx="6" fill="#82c6a7"/>
  <rect x="660" y="186" width="170" height="12" rx="4" fill="#f2efe7" opacity=".72"/>
  <rect x="660" y="218" width="190" height="12" rx="4" fill="#f2efe7" opacity=".56"/>
  <rect x="660" y="250" width="126" height="12" rx="4" fill="#f2efe7" opacity=".56"/>
  <text x="112" y="286" fill="#262420" font-family="ui-monospace, Menlo, Consolas, monospace" font-size="28">.md</text>
  <text x="660" y="294" fill="#f2efe7" font-family="ui-monospace, Menlo, Consolas, monospace" font-size="24">jekyll build</text>
</svg>

